<svg xmlns="http://www.w3.org/2000/svg" xmlns:xlink="http://www.w3.org/1999/xlink" width="40" zoomAndPan="magnify" viewBox="0 0 30 30.000001" height="40" preserveAspectRatio="xMidYMid meet" version="1.0"><defs><clipPath id="d68cfabe4f"><path d="M 1.679688 1.199219 L 28.535156 1.199219 L 28.535156 28.050781 L 1.679688 28.050781 Z M 1.679688 1.199219 " clip-rule="nonzero"/></clipPath></defs><g clip-path="url(#d68cfabe4f)"><path fill="#436697" d="M 9.511719 1.199219 C 5.195312 1.199219 1.679688 4.714844 1.679688 9.03125 L 1.679688 20.222656 C 1.679688 24.539062 5.195312 28.050781 9.515625 28.050781 L 20.707031 28.050781 C 25.023438 28.050781 28.535156 24.535156 28.535156 20.21875 L 28.535156 9.027344 C 28.535156 4.710938 25.019531 1.199219 20.703125 1.199219 Z M 22.941406 5.671875 C 23.558594 5.671875 24.058594 6.175781 24.058594 6.792969 C 24.058594 7.410156 23.558594 7.910156 22.941406 7.910156 C 22.324219 7.910156 21.824219 7.410156 21.824219 6.792969 C 21.824219 6.175781 22.324219 5.671875 22.941406 5.671875 Z M 15.109375 7.910156 C 18.8125 7.910156 21.824219 10.921875 21.824219 14.625 C 21.824219 18.328125 18.8125 21.339844 15.109375 21.339844 C 11.40625 21.339844 8.394531 18.328125 8.394531 14.625 C 8.394531 10.921875 11.40625 7.910156 15.109375 7.910156 Z M 15.109375 10.148438 C 14.816406 10.148438 14.523438 10.179688 14.234375 10.234375 C 13.949219 10.292969 13.667969 10.378906 13.394531 10.488281 C 13.125 10.601562 12.867188 10.738281 12.621094 10.902344 C 12.378906 11.066406 12.152344 11.253906 11.945312 11.460938 C 11.734375 11.667969 11.550781 11.894531 11.386719 12.136719 C 11.222656 12.382812 11.085938 12.640625 10.972656 12.914062 C 10.859375 13.183594 10.777344 13.464844 10.71875 13.75 C 10.660156 14.039062 10.632812 14.332031 10.632812 14.625 C 10.632812 14.917969 10.660156 15.210938 10.71875 15.5 C 10.777344 15.785156 10.859375 16.066406 10.972656 16.335938 C 11.085938 16.609375 11.222656 16.867188 11.386719 17.113281 C 11.550781 17.355469 11.734375 17.582031 11.945312 17.789062 C 12.152344 17.996094 12.378906 18.183594 12.621094 18.347656 C 12.867188 18.511719 13.125 18.648438 13.394531 18.761719 C 13.667969 18.871094 13.949219 18.957031 14.234375 19.015625 C 14.523438 19.070312 14.816406 19.101562 15.109375 19.101562 C 15.402344 19.101562 15.695312 19.070312 15.980469 19.015625 C 16.269531 18.957031 16.550781 18.871094 16.820312 18.761719 C 17.09375 18.648438 17.351562 18.511719 17.59375 18.347656 C 17.839844 18.183594 18.066406 17.996094 18.273438 17.789062 C 18.480469 17.582031 18.667969 17.355469 18.832031 17.113281 C 18.992188 16.867188 19.132812 16.609375 19.242188 16.335938 C 19.355469 16.066406 19.441406 15.785156 19.5 15.5 C 19.554688 15.210938 19.585938 14.917969 19.585938 14.625 C 19.585938 14.332031 19.554688 14.039062 19.5 13.75 C 19.441406 13.464844 19.355469 13.183594 19.242188 12.914062 C 19.132812 12.640625 18.992188 12.382812 18.832031 12.136719 C 18.667969 11.894531 18.480469 11.667969 18.273438 11.460938 C 18.066406 11.253906 17.839844 11.066406 17.59375 10.902344 C 17.351562 10.738281 17.09375 10.601562 16.820312 10.488281 C 16.550781 10.378906 16.269531 10.292969 15.980469 10.234375 C 15.695312 10.179688 15.402344 10.148438 15.109375 10.148438 Z M 15.109375 10.148438 " fill-opacity="1" fill-rule="nonzero"/></g></svg>