<svg xmlns="http://www.w3.org/2000/svg" xmlns:xlink="http://www.w3.org/1999/xlink" width="40" zoomAndPan="magnify" viewBox="0 0 30 30.000001" height="40" preserveAspectRatio="xMidYMid meet" version="1.0"><defs><clipPath id="b44d0e713f"><path d="M 7.574219 1.011719 L 22 1.011719 L 22 27.867188 L 7.574219 27.867188 Z M 7.574219 1.011719 " clip-rule="nonzero"/></clipPath></defs><g clip-path="url(#b44d0e713f)"><path fill="#ffffff" d="M 20.3125 10.410156 L 17.140625 10.410156 L 17.140625 7.726562 C 17.140625 6.339844 17.25 5.464844 19.203125 5.464844 L 20.351562 5.464844 C 21.078125 5.464844 21.671875 4.863281 21.671875 4.125 L 21.671875 2.441406 C 21.671875 1.738281 21.140625 1.136719 20.453125 1.089844 C 19.65625 1.035156 18.855469 1.011719 18.054688 1.011719 C 14.472656 1.011719 11.859375 3.234375 11.859375 7.320312 L 11.859375 10.410156 L 9.21875 10.410156 C 8.492188 10.410156 7.898438 11.011719 7.898438 11.753906 L 7.898438 14.4375 C 7.898438 15.179688 8.492188 15.78125 9.21875 15.78125 L 11.859375 15.78125 L 11.859375 26.523438 C 11.859375 27.265625 12.453125 27.867188 13.179688 27.867188 L 15.820312 27.867188 C 16.550781 27.867188 17.140625 27.265625 17.140625 26.523438 L 17.140625 15.777344 L 20.011719 15.777344 C 20.679688 15.777344 21.246094 15.265625 21.320312 14.585938 L 21.625 11.90625 C 21.714844 11.109375 21.101562 10.410156 20.3125 10.410156 Z M 20.3125 10.410156 " fill-opacity="1" fill-rule="nonzero"/></g></svg>