<svg xmlns="http://www.w3.org/2000/svg" xmlns:xlink="http://www.w3.org/1999/xlink" width="40" zoomAndPan="magnify" viewBox="0 0 30 30.000001" height="40" preserveAspectRatio="xMidYMid meet" version="1.0"><defs><clipPath id="12a69f2e8e"><path d="M 2 2 L 26 2 L 26 28 L 2 28 Z M 2 2 " clip-rule="nonzero"/></clipPath><clipPath id="09b00360f6"><path d="M 12.945312 3.507812 C 12.945312 2.890625 13.445312 2.390625 14.0625 2.390625 L 17.417969 2.390625 C 18.039062 2.390625 18.539062 2.890625 18.539062 3.507812 C 18.539062 6.597656 21.042969 9.101562 24.132812 9.101562 C 24.75 9.101562 25.253906 9.605469 25.253906 10.222656 L 25.253906 13.578125 C 25.253906 14.195312 24.75 14.699219 24.132812 14.699219 C 22.09375 14.699219 20.183594 14.152344 18.539062 13.199219 L 18.539062 19.171875 C 18.539062 23.5 15.03125 27.007812 10.707031 27.007812 C 6.378906 27.007812 2.871094 23.5 2.871094 19.171875 C 2.871094 14.847656 6.378906 11.339844 10.707031 11.339844 C 11.324219 11.339844 11.824219 11.839844 11.824219 12.460938 L 11.824219 15.816406 C 11.824219 16.433594 11.324219 16.933594 10.707031 16.933594 C 9.46875 16.933594 8.46875 17.9375 8.46875 19.171875 C 8.46875 20.410156 9.46875 21.410156 10.707031 21.410156 C 11.941406 21.410156 12.945312 20.410156 12.945312 19.171875 Z M 15.179688 4.628906 L 15.179688 19.171875 C 15.179688 21.644531 13.175781 23.648438 10.707031 23.648438 C 8.234375 23.648438 6.230469 21.644531 6.230469 19.171875 C 6.230469 17.085938 7.65625 15.335938 9.585938 14.839844 L 9.585938 13.691406 C 7.03125 14.207031 5.109375 16.464844 5.109375 19.171875 C 5.109375 22.261719 7.617188 24.769531 10.707031 24.769531 C 13.796875 24.769531 16.300781 22.261719 16.300781 19.171875 L 16.300781 11.015625 C 16.300781 10.574219 16.558594 10.171875 16.960938 9.992188 C 17.367188 9.8125 17.835938 9.886719 18.164062 10.179688 C 19.488281 11.363281 21.164062 12.160156 23.015625 12.390625 L 23.015625 11.261719 C 19.582031 10.769531 16.871094 8.058594 16.378906 4.628906 Z M 15.179688 4.628906 " clip-rule="evenodd"/></clipPath></defs><g clip-path="url(#12a69f2e8e)"><g clip-path="url(#09b00360f6)"><path fill="#436697" d="M 2.871094 2.390625 L 2.871094 27.007812 L 25.253906 27.007812 L 25.253906 2.390625 Z M 2.871094 2.390625 " fill-opacity="1" fill-rule="nonzero"/></g></g></svg>