<svg xmlns="http://www.w3.org/2000/svg" xmlns:xlink="http://www.w3.org/1999/xlink" width="40" zoomAndPan="magnify" viewBox="0 0 30 30.000001" height="40" preserveAspectRatio="xMidYMid meet" version="1.0"><defs><clipPath id="53ab72db2a"><path d="M 1.425781 2.242188 L 28.28125 2.242188 L 28.28125 26.921875 L 1.425781 26.921875 Z M 1.425781 2.242188 " clip-rule="nonzero"/></clipPath></defs><g clip-path="url(#53ab72db2a)"><path fill="#436697" d="M 30.816406 23.296875 C 30.816406 26.28125 28.394531 28.703125 25.410156 28.703125 L 0.65625 28.703125 C -2.328125 28.703125 -4.746094 26.28125 -4.746094 23.296875 L -4.746094 -1.457031 C -4.746094 -4.441406 -2.328125 -6.859375 0.65625 -6.859375 L 25.410156 -6.859375 C 28.394531 -6.859375 30.816406 -4.441406 30.816406 -1.457031 Z M 30.816406 23.296875 " fill-opacity="1" fill-rule="nonzero"/></g><path fill="#ffffff" d="M 9.316406 5.828125 C 9.316406 6.179688 9.246094 6.519531 9.113281 6.84375 C 8.976562 7.167969 8.785156 7.457031 8.535156 7.707031 C 8.289062 7.953125 8 8.148438 7.675781 8.28125 C 7.347656 8.417969 7.011719 8.484375 6.65625 8.484375 C 6.304688 8.484375 5.964844 8.417969 5.640625 8.28125 C 5.316406 8.148438 5.027344 7.953125 4.777344 7.707031 C 4.53125 7.457031 4.339844 7.167969 4.203125 6.84375 C 4.070312 6.519531 4 6.179688 4 5.828125 C 4 5.476562 4.070312 5.136719 4.203125 4.808594 C 4.339844 4.484375 4.53125 4.199219 4.777344 3.949219 C 5.027344 3.699219 5.316406 3.507812 5.640625 3.371094 C 5.964844 3.238281 6.304688 3.171875 6.65625 3.171875 C 7.011719 3.171875 7.347656 3.238281 7.675781 3.371094 C 8 3.507812 8.289062 3.699219 8.535156 3.949219 C 8.785156 4.199219 8.976562 4.484375 9.113281 4.808594 C 9.246094 5.136719 9.316406 5.476562 9.316406 5.828125 Z M 9.316406 5.828125 " fill-opacity="1" fill-rule="nonzero"/><path fill="#ffffff" d="M 4.367188 10.441406 L 8.929688 10.441406 L 8.929688 25.125 L 4.367188 25.125 Z M 4.367188 10.441406 " fill-opacity="1" fill-rule="nonzero"/><path fill="#ffffff" d="M 11.800781 10.441406 L 16.144531 10.441406 L 16.144531 25.125 L 11.800781 25.125 Z M 11.800781 10.441406 " fill-opacity="1" fill-rule="nonzero"/><path fill="#ffffff" d="M 11.988281 18.261719 L 16.332031 18.261719 L 16.332031 25.125 L 11.988281 25.125 Z M 11.988281 18.261719 " fill-opacity="1" fill-rule="nonzero"/><path fill="#ffffff" d="M 16.332031 18.261719 C 16.332031 18.261719 16.265625 16.355469 16.769531 15.367188 C 16.769531 15.367188 17.269531 14.144531 18.847656 14.136719 C 18.847656 14.136719 20.699219 13.816406 21.230469 15.652344 C 21.230469 15.652344 21.433594 16.671875 21.433594 17.101562 C 21.433594 17.53125 21.445312 25.125 21.445312 25.125 L 25.996094 25.125 L 25.996094 16.714844 C 25.996094 16.714844 26.328125 11.964844 23.476562 10.664062 C 23.476562 10.664062 18.785156 8.558594 16.242188 12.421875 C 16.242188 12.421875 15.6875 12.804688 15.609375 11.734375 C 15.535156 10.664062 14.882812 13.378906 14.863281 13.4375 C 14.84375 13.496094 15.609375 18.851562 15.609375 18.851562 Z M 16.332031 18.261719 " fill-opacity="1" fill-rule="nonzero"/></svg>