<svg xmlns="http://www.w3.org/2000/svg" xmlns:xlink="http://www.w3.org/1999/xlink" width="40" zoomAndPan="magnify" viewBox="0 0 30 30.000001" height="40" preserveAspectRatio="xMidYMid meet" version="1.0"><defs><clipPath id="5f42f9a92b"><path d="M 3 6 L 26 6 L 26 29.03125 L 3 29.03125 Z M 3 6 " clip-rule="nonzero"/></clipPath><clipPath id="4f3160acc4"><path d="M 1.066406 0 L 28.644531 0 L 28.644531 16 L 1.066406 16 Z M 1.066406 0 " clip-rule="nonzero"/></clipPath></defs><g clip-path="url(#5f42f9a92b)"><path fill="#436697" d="M 3.902344 17.304688 L 3.902344 28.519531 C 3.902344 28.800781 4.128906 29.03125 4.40625 29.03125 L 16.320312 29.03125 L 16.320312 18.875 L 21.917969 18.875 L 21.917969 29.03125 L 25.246094 29.03125 C 25.523438 29.03125 25.75 28.800781 25.75 28.519531 L 25.75 17.304688 L 14.832031 6.324219 Z M 12.785156 23.605469 L 7.734375 23.605469 L 7.734375 18.875 L 12.785156 18.875 Z M 12.785156 23.605469 " fill-opacity="1" fill-rule="nonzero"/></g><g clip-path="url(#4f3160acc4)"><path fill="#436697" d="M 27.964844 13.273438 L 14.828125 0 L 8.628906 6.261719 L 8.628906 3.507812 C 8.628906 2.863281 8.113281 2.339844 7.476562 2.339844 C 6.839844 2.339844 6.320312 2.863281 6.320312 3.507812 L 6.320312 8.59375 L 1.6875 13.273438 C 1.125 13.84375 1.125 14.765625 1.6875 15.335938 C 1.96875 15.617188 2.339844 15.761719 2.710938 15.761719 C 3.078125 15.761719 3.445312 15.617188 3.730469 15.335938 L 14.828125 4.125 L 25.921875 15.335938 C 26.488281 15.902344 27.398438 15.902344 27.964844 15.335938 C 28.527344 14.765625 28.527344 13.84375 27.964844 13.273438 Z M 27.964844 13.273438 " fill-opacity="1" fill-rule="nonzero"/></g></svg>