<svg xmlns="http://www.w3.org/2000/svg" xmlns:xlink="http://www.w3.org/1999/xlink" width="40" zoomAndPan="magnify" viewBox="0 0 30 30.000001" height="40" preserveAspectRatio="xMidYMid meet" version="1.0"><defs><clipPath id="81b6aa6fe9"><path d="M 1 17 L 29 17 L 29 26.128906 L 1 26.128906 Z M 1 17 " clip-rule="nonzero"/></clipPath><clipPath id="221d3ca3d8"><path d="M 0.929688 2.902344 L 29.238281 2.902344 L 29.238281 17 L 0.929688 17 Z M 0.929688 2.902344 " clip-rule="nonzero"/></clipPath></defs><path fill="#436697" d="M 16.472656 17.144531 L 16.472656 16.515625 C 16.472656 15.75 15.851562 15.128906 15.082031 15.128906 C 14.316406 15.128906 13.695312 15.75 13.695312 16.515625 L 13.695312 17.144531 C 13.695312 17.914062 14.316406 18.535156 15.082031 18.535156 C 15.847656 18.535156 16.472656 17.914062 16.472656 17.144531 Z M 16.472656 17.144531 " fill-opacity="1" fill-rule="nonzero"/><g clip-path="url(#81b6aa6fe9)"><path fill="#436697" d="M 17.421875 17.914062 C 17.117188 18.921875 16.1875 19.660156 15.082031 19.660156 C 13.976562 19.660156 13.050781 18.921875 12.742188 17.914062 L 3.1875 17.914062 C 2.582031 17.914062 2.011719 17.773438 1.5 17.53125 L 1.5 23.882812 C 1.5 25.121094 2.515625 26.136719 3.753906 26.136719 L 26.414062 26.136719 C 27.652344 26.136719 28.664062 25.121094 28.664062 23.882812 L 28.664062 17.53125 C 28.152344 17.773438 27.582031 17.914062 26.980469 17.914062 Z M 17.421875 17.914062 " fill-opacity="1" fill-rule="nonzero"/></g><g clip-path="url(#221d3ca3d8)"><path fill="#436697" d="M 26.886719 6.507812 L 21.480469 6.507812 C 21.152344 4.464844 19.382812 2.894531 17.25 2.894531 L 12.917969 2.894531 C 10.785156 2.894531 9.015625 4.464844 8.6875 6.507812 L 3.28125 6.507812 C 1.988281 6.507812 0.933594 7.523438 0.933594 8.761719 L 0.933594 13.96875 C 0.933594 15.214844 1.941406 16.222656 3.1875 16.222656 L 12.636719 16.222656 C 12.667969 15.574219 12.949219 14.992188 13.386719 14.570312 C 13.402344 14.558594 13.417969 14.546875 13.429688 14.535156 C 13.527344 14.445312 13.628906 14.359375 13.742188 14.285156 C 13.78125 14.261719 13.824219 14.242188 13.867188 14.21875 C 13.957031 14.167969 14.046875 14.113281 14.148438 14.070312 C 14.222656 14.039062 14.308594 14.019531 14.386719 13.996094 C 14.457031 13.976562 14.523438 13.949219 14.597656 13.933594 C 14.753906 13.902344 14.917969 13.882812 15.082031 13.882812 C 15.25 13.882812 15.414062 13.902344 15.570312 13.933594 C 15.640625 13.949219 15.707031 13.976562 15.777344 13.996094 C 15.859375 14.019531 15.941406 14.039062 16.019531 14.070312 C 16.117188 14.113281 16.207031 14.167969 16.296875 14.21875 C 16.339844 14.242188 16.386719 14.261719 16.425781 14.289062 C 16.535156 14.359375 16.636719 14.445312 16.734375 14.535156 C 16.75 14.546875 16.765625 14.558594 16.777344 14.570312 C 17.21875 14.992188 17.496094 15.574219 17.527344 16.222656 L 26.980469 16.222656 C 28.222656 16.222656 29.234375 15.214844 29.234375 13.96875 L 29.234375 8.765625 C 29.234375 7.523438 28.175781 6.507812 26.886719 6.507812 Z M 10.855469 6.507812 C 11.144531 5.640625 11.953125 5.007812 12.917969 5.007812 L 17.25 5.007812 C 18.210938 5.007812 19.023438 5.640625 19.308594 6.507812 Z M 10.855469 6.507812 " fill-opacity="1" fill-rule="nonzero"/></g></svg>