<svg xmlns="http://www.w3.org/2000/svg" xmlns:xlink="http://www.w3.org/1999/xlink" width="40" zoomAndPan="magnify" viewBox="0 0 30 30.000001" height="40" preserveAspectRatio="xMidYMid meet" version="1.0"><defs><clipPath id="9e2ef79662"><path d="M 1.121094 1.453125 L 28.699219 1.453125 L 28.699219 27.582031 L 1.121094 27.582031 Z M 1.121094 1.453125 " clip-rule="nonzero"/></clipPath></defs><g clip-path="url(#9e2ef79662)"><path fill="#436697" d="M 4.71875 8.203125 C 5.707031 8.203125 6.511719 9.011719 6.511719 10.007812 C 6.511719 11.003906 5.707031 11.8125 4.71875 11.8125 C 3.726562 11.8125 2.921875 11.003906 2.921875 10.007812 C 2.921875 9.011719 3.726562 8.203125 4.71875 8.203125 Z M 25.101562 8.203125 C 24.113281 8.203125 23.308594 9.011719 23.308594 10.007812 C 23.308594 11.003906 24.113281 11.8125 25.101562 11.8125 C 26.09375 11.8125 26.898438 11.003906 26.898438 10.007812 C 26.898438 9.011719 26.09375 8.203125 25.101562 8.203125 Z M 22.28125 22.125 C 22.28125 22.371094 22.480469 22.570312 22.726562 22.570312 L 22.726562 27.578125 L 23.917969 27.578125 L 23.917969 22.570312 L 26.484375 22.570312 C 27.699219 22.570312 28.695312 21.570312 28.695312 20.34375 L 28.695312 13.808594 C 28.695312 13.5625 28.496094 13.359375 28.25 13.359375 C 28.003906 13.359375 27.804688 13.5625 27.804688 13.808594 L 27.804688 20.34375 C 27.804688 21.078125 27.210938 21.675781 26.484375 21.675781 L 24.589844 21.675781 C 25.773438 21.027344 26.519531 19.785156 26.519531 18.421875 L 26.519531 13.390625 C 26.519531 12.609375 25.882812 11.972656 25.109375 11.972656 C 24.546875 11.972656 24.0625 12.296875 23.832031 12.769531 C 24.574219 12.550781 25.40625 12.839844 25.847656 13.527344 C 26.378906 14.363281 26.136719 15.480469 25.308594 16.019531 L 23.6875 17.070312 L 23.6875 18.421875 C 23.6875 18.890625 23.304688 19.277344 22.839844 19.277344 L 22.375 19.277344 C 20.707031 19.277344 19.757812 20.234375 19.09375 21.839844 L 19.09375 27.578125 L 19.4375 27.578125 L 20.78125 22.976562 C 20.921875 22.5 21.164062 22.125 21.628906 22.125 Z M 22.511719 16.597656 L 17.980469 16.601562 C 17.480469 16.601562 17.074219 16.191406 17.074219 15.6875 C 17.074219 15.183594 17.480469 14.773438 17.980469 14.773438 L 22.246094 14.773438 L 23.847656 13.734375 C 24.269531 13.464844 24.828125 13.585938 25.097656 14.011719 C 25.367188 14.433594 25.246094 14.996094 24.824219 15.269531 L 23 16.453125 C 22.847656 16.550781 22.679688 16.597656 22.511719 16.597656 Z M 14.910156 1.453125 C 17.671875 1.453125 19.914062 3.707031 19.914062 6.484375 C 19.914062 9.265625 17.671875 11.519531 14.910156 11.519531 C 12.148438 11.519531 9.90625 9.265625 9.90625 6.484375 C 9.90625 3.707031 12.148438 1.453125 14.910156 1.453125 Z M 7.519531 9.285156 C 7.308594 9.40625 7.035156 9.335938 6.914062 9.121094 C 6.789062 8.910156 6.863281 8.636719 7.074219 8.511719 L 8.554688 7.652344 C 8.765625 7.527344 9.039062 7.601562 9.160156 7.816406 C 9.285156 8.027344 9.210938 8.300781 9 8.425781 Z M 22.746094 8.511719 C 22.957031 8.636719 23.03125 8.910156 22.90625 9.121094 C 22.785156 9.335938 22.511719 9.40625 22.300781 9.285156 L 20.820312 8.425781 C 20.609375 8.300781 20.535156 8.027344 20.660156 7.816406 C 20.78125 7.601562 21.054688 7.527344 21.265625 7.652344 Z M 16.445312 5.144531 C 16.226562 4.621094 15.8125 4.320312 15.355469 4.203125 L 15.355469 4.054688 C 15.355469 3.804688 15.15625 3.605469 14.910156 3.605469 C 14.664062 3.605469 14.464844 3.804688 14.464844 4.054688 L 14.464844 4.210938 C 13.820312 4.378906 13.335938 4.902344 13.371094 5.601562 C 13.410156 6.4375 14.113281 6.792969 14.84375 6.914062 C 15.144531 6.960938 15.644531 7.0625 15.6875 7.4375 C 15.691406 7.464844 15.691406 7.476562 15.691406 7.484375 C 15.699219 7.777344 15.308594 7.890625 15.078125 7.917969 C 15.027344 7.925781 14.984375 7.929688 14.949219 7.929688 C 14.601562 7.9375 14.207031 7.785156 14.117188 7.414062 C 14.058594 7.171875 13.816406 7.027344 13.578125 7.085938 C 13.339844 7.144531 13.195312 7.386719 13.253906 7.625 C 13.402344 8.230469 13.875 8.632812 14.464844 8.769531 L 14.464844 8.917969 C 14.464844 9.164062 14.664062 9.367188 14.910156 9.367188 C 15.15625 9.367188 15.355469 9.164062 15.355469 8.917969 L 15.355469 8.777344 C 16.015625 8.640625 16.597656 8.199219 16.578125 7.464844 C 16.578125 7.410156 16.574219 7.367188 16.570312 7.332031 C 16.46875 6.476562 15.734375 6.15625 14.984375 6.03125 C 14.726562 5.988281 14.269531 5.890625 14.253906 5.5625 C 14.242188 5.273438 14.488281 5.109375 14.738281 5.0625 C 15.101562 4.988281 15.476562 5.132812 15.625 5.492188 C 15.71875 5.71875 15.980469 5.824219 16.207031 5.730469 C 16.433594 5.636719 16.539062 5.371094 16.445312 5.144531 Z M 14.910156 2.195312 C 12.554688 2.195312 10.644531 4.117188 10.644531 6.484375 C 10.644531 8.855469 12.554688 10.777344 14.910156 10.777344 C 17.265625 10.777344 19.175781 8.855469 19.175781 6.484375 C 19.175781 4.117188 17.265625 2.195312 14.910156 2.195312 Z M 14.910156 3.089844 C 13.046875 3.089844 11.535156 4.609375 11.535156 6.484375 C 11.535156 8.363281 13.046875 9.882812 14.910156 9.882812 C 16.773438 9.882812 18.285156 8.363281 18.285156 6.484375 C 18.285156 4.609375 16.773438 3.089844 14.910156 3.089844 Z M 18.203125 18.304688 L 18.203125 27.578125 L 11.617188 27.578125 L 11.617188 18.304688 L 9.082031 18.304688 C 8.957031 18.304688 8.859375 18.203125 8.859375 18.082031 L 8.859375 17.382812 C 8.859375 17.257812 8.957031 17.160156 9.082031 17.160156 L 20.738281 17.160156 C 20.863281 17.160156 20.960938 17.257812 20.960938 17.382812 L 20.960938 18.082031 C 20.960938 18.203125 20.863281 18.304688 20.738281 18.304688 Z M 7.539062 22.125 L 8.191406 22.125 C 8.65625 22.125 8.898438 22.5 9.039062 22.976562 L 10.382812 27.578125 L 10.726562 27.578125 L 10.726562 21.839844 C 10.066406 20.234375 9.113281 19.277344 7.445312 19.277344 L 6.980469 19.277344 C 6.515625 19.277344 6.132812 18.890625 6.132812 18.421875 L 6.132812 17.070312 L 4.511719 16.019531 C 3.683594 15.480469 3.441406 14.363281 3.972656 13.527344 C 4.414062 12.839844 5.246094 12.550781 5.988281 12.769531 C 5.757812 12.296875 5.273438 11.972656 4.714844 11.972656 C 3.9375 11.972656 3.304688 12.609375 3.304688 13.390625 L 3.304688 18.421875 C 3.304688 19.785156 4.046875 21.027344 5.230469 21.675781 L 3.339844 21.675781 C 2.609375 21.675781 2.015625 21.078125 2.015625 20.34375 L 2.015625 13.808594 C 2.015625 13.5625 1.816406 13.359375 1.570312 13.359375 C 1.324219 13.359375 1.125 13.5625 1.125 13.808594 L 1.125 20.34375 C 1.125 21.570312 2.121094 22.570312 3.339844 22.570312 L 5.902344 22.570312 L 5.902344 27.578125 L 7.09375 27.578125 L 7.09375 22.570312 C 7.339844 22.570312 7.539062 22.371094 7.539062 22.125 Z M 7.308594 16.597656 C 7.140625 16.597656 6.972656 16.550781 6.820312 16.453125 L 4.996094 15.269531 C 4.574219 14.996094 4.453125 14.433594 4.722656 14.011719 C 4.992188 13.585938 5.554688 13.464844 5.972656 13.734375 L 7.574219 14.773438 L 11.839844 14.773438 C 12.339844 14.773438 12.746094 15.183594 12.746094 15.6875 C 12.746094 16.191406 12.339844 16.601562 11.839844 16.601562 Z M 7.308594 16.597656 " fill-opacity="1" fill-rule="evenodd"/></g></svg>