<svg xmlns="http://www.w3.org/2000/svg" xmlns:xlink="http://www.w3.org/1999/xlink" width="40" zoomAndPan="magnify" viewBox="0 0 30 30.000001" height="40" preserveAspectRatio="xMidYMid meet" version="1.0"><defs><clipPath id="b03cdfea29"><path d="M 16 15 L 26.996094 15 L 26.996094 28.484375 L 16 28.484375 Z M 16 15 " clip-rule="nonzero"/></clipPath></defs><path fill="#e6e7e8" d="M 8.335938 2.527344 C 12.621094 -0.554688 18.582031 0.4375 21.652344 4.742188 C 24.71875 9.050781 23.730469 15.039062 19.441406 18.117188 C 15.15625 21.199219 9.191406 20.207031 6.125 15.898438 C 3.058594 11.59375 4.046875 5.605469 8.335938 2.527344 Z M 9.300781 3.878906 C 12.839844 1.335938 17.765625 2.15625 20.300781 5.714844 C 22.835938 9.269531 22.019531 14.21875 18.476562 16.761719 C 14.933594 19.308594 10.007812 18.488281 7.476562 14.929688 C 4.941406 11.375 5.757812 6.425781 9.300781 3.878906 Z M 9.300781 3.878906 " fill-opacity="1" fill-rule="evenodd"/><g clip-path="url(#b03cdfea29)"><path fill="#e6e7e8" d="M 16.660156 18.160156 L 20.054688 15.902344 C 20.113281 15.863281 20.179688 15.851562 20.253906 15.867188 C 20.328125 15.886719 20.382812 15.929688 20.425781 15.996094 L 26.816406 25.699219 C 26.859375 25.765625 26.875 25.835938 26.863281 25.910156 C 26.851562 25.984375 26.816406 26.039062 26.753906 26.082031 L 23.359375 28.339844 C 23.300781 28.378906 23.234375 28.386719 23.160156 28.371094 C 23.089844 28.351562 23.03125 28.308594 22.988281 28.246094 L 16.597656 18.539062 C 16.554688 18.476562 16.539062 18.40625 16.550781 18.332031 C 16.5625 18.257812 16.597656 18.199219 16.660156 18.160156 Z M 16.660156 18.160156 " fill-opacity="1" fill-rule="evenodd"/></g><path fill="#e6e7e8" d="M 7.164062 8.078125 C 8.683594 5.871094 11.609375 3.527344 14.285156 3.253906 C 10.527344 2.488281 7.457031 5.851562 7.164062 8.078125 Z M 7.164062 8.078125 " fill-opacity="1" fill-rule="evenodd"/></svg>