<svg xmlns="http://www.w3.org/2000/svg" xmlns:xlink="http://www.w3.org/1999/xlink" width="40" zoomAndPan="magnify" viewBox="0 0 30 30.000001" height="40" preserveAspectRatio="xMidYMid meet" version="1.0"><defs><clipPath id="842dac8c61"><path d="M 0.484375 0 L 29.515625 0 L 29.515625 29.03125 L 0.484375 29.03125 Z M 0.484375 0 " clip-rule="nonzero"/></clipPath></defs><g clip-path="url(#842dac8c61)"><path fill="#ffffff" d="M 0.484375 0 L 29.515625 0 L 29.515625 29.03125 L 0.484375 29.03125 Z M 0.484375 0 " fill-opacity="1" fill-rule="nonzero"/><path fill="#436697" d="M 0.484375 0 L 29.515625 0 L 29.515625 29.03125 L 0.484375 29.03125 Z M 0.484375 0 " fill-opacity="1" fill-rule="nonzero"/><path fill="#436697" d="M 34.792969 14.488281 C 34.792969 15.132812 34.761719 15.773438 34.699219 16.410156 C 34.636719 17.046875 34.542969 17.683594 34.417969 18.3125 C 34.292969 18.941406 34.136719 19.5625 33.949219 20.175781 C 33.765625 20.789062 33.546875 21.394531 33.300781 21.988281 C 33.058594 22.578125 32.78125 23.160156 32.480469 23.726562 C 32.175781 24.289062 31.847656 24.839844 31.492188 25.375 C 31.132812 25.90625 30.753906 26.421875 30.34375 26.917969 C 29.9375 27.414062 29.507812 27.890625 29.054688 28.34375 C 28.597656 28.796875 28.125 29.226562 27.628906 29.632812 C 27.132812 30.039062 26.617188 30.421875 26.082031 30.777344 C 25.550781 31.136719 25 31.464844 24.433594 31.765625 C 23.867188 32.070312 23.289062 32.34375 22.695312 32.589844 C 22.101562 32.835938 21.496094 33.050781 20.882812 33.238281 C 20.269531 33.421875 19.648438 33.578125 19.015625 33.703125 C 18.386719 33.828125 17.753906 33.921875 17.113281 33.984375 C 16.476562 34.046875 15.835938 34.082031 15.191406 34.082031 C 14.550781 34.082031 13.910156 34.046875 13.273438 33.984375 C 12.632812 33.921875 12 33.828125 11.367188 33.703125 C 10.738281 33.578125 10.117188 33.421875 9.503906 33.238281 C 8.890625 33.050781 8.285156 32.835938 7.691406 32.589844 C 7.097656 32.34375 6.519531 32.070312 5.953125 31.765625 C 5.386719 31.464844 4.835938 31.136719 4.304688 30.777344 C 3.769531 30.421875 3.253906 30.039062 2.757812 29.632812 C 2.261719 29.226562 1.785156 28.796875 1.332031 28.34375 C 0.878906 27.890625 0.449219 27.414062 0.0429688 26.917969 C -0.367188 26.421875 -0.75 25.90625 -1.105469 25.375 C -1.460938 24.839844 -1.789062 24.289062 -2.09375 23.726562 C -2.394531 23.160156 -2.671875 22.578125 -2.917969 21.988281 C -3.160156 21.394531 -3.378906 20.789062 -3.5625 20.175781 C -3.75 19.5625 -3.90625 18.941406 -4.03125 18.3125 C -4.15625 17.683594 -4.25 17.046875 -4.3125 16.410156 C -4.375 15.773438 -4.40625 15.132812 -4.40625 14.488281 C -4.40625 13.847656 -4.375 13.207031 -4.3125 12.570312 C -4.25 11.929688 -4.15625 11.296875 -4.03125 10.667969 C -3.90625 10.039062 -3.75 9.417969 -3.5625 8.804688 C -3.378906 8.1875 -3.160156 7.585938 -2.917969 6.992188 C -2.671875 6.398438 -2.394531 5.820312 -2.09375 5.253906 C -1.789062 4.6875 -1.460938 4.140625 -1.105469 3.605469 C -0.75 3.074219 -0.367188 2.558594 0.0429688 2.0625 C 0.449219 1.566406 0.878906 1.089844 1.332031 0.636719 C 1.785156 0.183594 2.261719 -0.246094 2.757812 -0.652344 C 3.253906 -1.058594 3.769531 -1.441406 4.304688 -1.796875 C 4.835938 -2.15625 5.386719 -2.484375 5.953125 -2.785156 C 6.519531 -3.089844 7.097656 -3.363281 7.691406 -3.609375 C 8.285156 -3.855469 8.890625 -4.070312 9.503906 -4.257812 C 10.117188 -4.441406 10.738281 -4.597656 11.367188 -4.722656 C 12 -4.847656 12.632812 -4.941406 13.273438 -5.007812 C 13.910156 -5.070312 14.550781 -5.101562 15.191406 -5.101562 C 15.835938 -5.101562 16.476562 -5.070312 17.113281 -5.007812 C 17.753906 -4.941406 18.386719 -4.847656 19.015625 -4.722656 C 19.648438 -4.597656 20.269531 -4.441406 20.882812 -4.257812 C 21.496094 -4.070312 22.101562 -3.855469 22.695312 -3.609375 C 23.289062 -3.363281 23.867188 -3.089844 24.433594 -2.785156 C 25 -2.484375 25.550781 -2.15625 26.082031 -1.796875 C 26.617188 -1.441406 27.132812 -1.058594 27.628906 -0.652344 C 28.125 -0.246094 28.597656 0.183594 29.054688 0.636719 C 29.507812 1.089844 29.9375 1.566406 30.34375 2.0625 C 30.753906 2.558594 31.132812 3.074219 31.492188 3.605469 C 31.847656 4.140625 32.175781 4.6875 32.480469 5.253906 C 32.78125 5.820312 33.058594 6.398438 33.300781 6.992188 C 33.546875 7.585938 33.765625 8.1875 33.949219 8.804688 C 34.136719 9.417969 34.292969 10.039062 34.417969 10.667969 C 34.542969 11.296875 34.636719 11.929688 34.699219 12.570312 C 34.761719 13.207031 34.792969 13.847656 34.792969 14.488281 Z M 34.792969 14.488281 " fill-opacity="1" fill-rule="nonzero"/></g><path fill="#ffffff" d="M 17.609375 12.648438 L 27.195312 1.605469 L 24.9375 1.605469 L 16.597656 11.191406 L 10.089844 1.847656 L 2.679688 1.847656 L 12.496094 15.902344 L 2.523438 27.367188 L 4.835938 27.367188 L 13.519531 17.363281 L 20.511719 27.375 L 27.863281 27.375 Z M 14.574219 16.148438 L 13.554688 14.691406 L 5.671875 3.40625 L 9.273438 3.40625 L 15.539062 12.40625 L 16.554688 13.863281 L 24.875 25.816406 L 21.324219 25.816406 Z M 14.574219 16.148438 " fill-opacity="1" fill-rule="nonzero"/></svg>