<svg xmlns="http://www.w3.org/2000/svg" viewBox="0 0 128 128">
  <defs>
    <linearGradient id="grad-support" x1="0%" y1="0%" x2="100%" y2="100%">
      <stop offset="0%" stop-color="#ffb347"/>
      <stop offset="100%" stop-color="#ff7b00"/>
    </linearGradient>
    <linearGradient id="grad-support-bg" x1="0%" y1="0%" x2="0%" y2="100%">
      <stop offset="0%" stop-color="#fff7ed"/>
      <stop offset="100%" stop-color="#ffe8cc"/>
    </linearGradient>
  </defs>
  <rect width="128" height="128" rx="24" fill="url(#grad-support-bg)"/>
  <path d="M40 64c0-17.7 10.7-32 24-32s24 14.3 24 32" fill="none" stroke="#ff7b00" stroke-width="6" stroke-linecap="round"/>
  <rect x="30" y="56" width="20" height="32" rx="8" fill="url(#grad-support)" stroke="#d35f00" stroke-width="2"/>
  <rect x="78" y="56" width="20" height="32" rx="8" fill="url(#grad-support)" stroke="#d35f00" stroke-width="2"/>
  <circle cx="64" cy="70" r="9" fill="#fff7ed" stroke="#ff7b00" stroke-width="4"/>
  <path d="M60 90h12c4 0 6 3 6 7v5H54v-5c0-4 2-7 6-7Z" fill="#ff7b00" opacity="0.9"/>
  <path d="M76 46c0-6-5-11-12-11s-12 5-12 11" fill="none" stroke="#ff7b00" stroke-width="5" stroke-linecap="round"/>
  <circle cx="88" cy="44" r="6" fill="#fff" opacity="0.85"/>
</svg>
