<svg xmlns="http://www.w3.org/2000/svg" viewBox="0 0 128 128">
  <defs>
    <linearGradient id="grad-price" x1="0%" y1="0%" x2="100%" y2="100%">
      <stop offset="0%" stop-color="#28a745"/>
      <stop offset="100%" stop-color="#1f8b3a"/>
    </linearGradient>
    <linearGradient id="grad-price-bg" x1="0%" y1="0%" x2="0%" y2="100%">
      <stop offset="0%" stop-color="#f7fbf5"/>
      <stop offset="100%" stop-color="#eaf6e6"/>
    </linearGradient>
  </defs>
  <rect width="128" height="128" rx="24" fill="url(#grad-price-bg)"/>
  <path d="M32 34c0-3.3 2.7-6 6-6h36.5a8 8 0 0 1 5.7 2.3l16.5 16.5a8 8 0 0 1 2.3 5.7V88a6 6 0 0 1-6 6H56.5a8 8 0 0 1-5.7-2.3L34.3 75.2A8 8 0 0 1 32 69.5V34Z" fill="url(#grad-price)" stroke="#0f7f2d" stroke-width="2" stroke-linejoin="round"/>
  <circle cx="44" cy="46" r="7" fill="#fff" opacity="0.85"/>
  <path d="M58 56c4.5-5.5 14.5-5.5 18 0 3 3.6 0 8.5-7 10-7 1.5-10 6.4-7 10 3.5 4.5 12.5 4.5 16 0" fill="none" stroke="#fff" stroke-width="6" stroke-linecap="round" stroke-linejoin="round"/>
  <line x1="67" y1="48" x2="67" y2="80" stroke="#fff" stroke-width="6" stroke-linecap="round"/>
</svg>
